<?xml version="1.0" encoding="UTF-8"?>
<svg version="1.1" xmlns="http://www.w3.org/2000/svg" width="577" height="433">
<path d="M0 0 C1.67542976 0.28604898 3.34385343 0.61781233 5 1 C5 3.64 5 6.28 5 9 C14.9 9 24.8 9 35 9 C35 6.36 35 3.72 35 1 C36.65 0.67 38.3 0.34 40 0 C42.29013653 3.4352048 42.17842973 4.985331 42 9 C43.0725 8.9175 44.145 8.835 45.25 8.75 C49 9 49 9 51.22265625 10.6171875 C53.58237035 13.78076025 53.37384992 15.44865044 53.1875 19.375 C53.14338337 20.77846044 53.10629122 22.18215018 53.07421875 23.5859375 C53.05536621 24.40674805 53.03651367 25.22755859 53.01708984 26.07324219 C52.98023802 32.38438088 53.27007872 38.69387887 53.5 45 C53.54861754 46.38068972 53.5970423 47.76138623 53.64526367 49.14208984 C53.76109316 52.42815383 53.87934623 55.7141102 54 59 C54.9914502 58.36880249 54.9914502 58.36880249 56.00292969 57.72485352 C56.88368164 57.17756592 57.76443359 56.63027832 58.671875 56.06640625 C59.5390918 55.52185791 60.40630859 54.97730957 61.29980469 54.41625977 C65.44486935 52.24216211 69.3571825 51.65579112 74 52 C77.5 53.125 77.5 53.125 80 55 C82.19359031 59.40392559 83.07833446 64.22410391 84.125 69 C84.30675781 69.7940625 84.48851562 70.588125 84.67578125 71.40625 C85.54658643 75.33469443 86.24506516 78.94825598 86 83 C86.66 83 87.32 83 88 83 C88.103125 81.824375 88.20625 80.64875 88.3125 79.4375 C88.809389 74.97969581 89.57963869 70.58798111 90.4375 66.1875 C90.68371094 64.92292969 90.92992187 63.65835938 91.18359375 62.35546875 C92.24263764 58.00274768 92.88267251 55.79030481 96.5625 53.1875 C102.33227884 51.19430367 107.50133548 52.12913025 113.0625 54.5 C118.98950981 57.73075485 124.51636872 63.68926435 127 70 C127.25878906 73.35986328 127.25878906 73.35986328 127.265625 77.3203125 C127.26753845 78.0201828 127.2694519 78.7200531 127.27142334 79.44113159 C127.27278057 80.91534791 127.26911645 82.38957637 127.26074219 83.86376953 C127.25000335 86.12429442 127.26066908 88.38403045 127.2734375 90.64453125 C127.27211645 92.07812676 127.2695552 93.51172177 127.265625 94.9453125 C127.26336914 96.25000488 127.26111328 97.55469727 127.25878906 98.89892578 C127 102 127 102 125 104 C117.26876848 105.46912673 109.11970414 105.14708412 101.28125 105.1328125 C99.51255554 105.13424759 99.51255554 105.13424759 97.70812988 105.13571167 C95.23071234 105.13638807 92.75329298 105.13457174 90.27587891 105.13037109 C86.51070121 105.12501522 82.74564279 105.1303346 78.98046875 105.13671875 C76.55989557 105.13605787 74.13932247 105.13477651 71.71875 105.1328125 C70.60697388 105.13483673 69.49519775 105.13686096 68.34973145 105.13894653 C48.34697136 105.07973207 48.34697136 105.07973207 44 101 C41.36266127 93.08798382 43 84.33999734 43 76 C24.85 76 6.7 76 -12 76 C-12.12032643 59.85843251 -12.12032643 59.85843251 -12.14648438 52.9921875 C-12.16443686 48.30198013 -12.18570269 43.61194799 -12.22631836 38.921875 C-12.25885001 35.14175875 -12.2768398 31.36183033 -12.28463173 27.58158493 C-12.29018645 26.13742489 -12.30103321 24.69327544 -12.31719017 23.2491951 C-12.33887964 21.23084743 -12.34022467 19.21231183 -12.34057617 17.19384766 C-12.34723801 16.04357086 -12.35389984 14.89329407 -12.36076355 13.7081604 C-12.24171158 12.81446747 -12.12265961 11.92077454 -12 11 C-8.3558226 8.5705484 -6.28758728 8.83820425 -2 9 C-1.855625 7.700625 -1.71125 6.40125 -1.5625 5.0625 C-1.125 1.125 -1.125 1.125 0 0 Z M-4 35 C-4.93423645 38.01031744 -5.04449911 38.86650268 -4 42 C-1.69 42 0.62 42 3 42 C3 39.69 3 37.38 3 35 C0.69 35 -1.62 35 -4 35 Z M24 35 C23.61866701 36.9914056 23.28674418 38.99279077 23 41 C24.18424326 42.41577477 24.18424326 42.41577477 27.5625 42.0625 C29.2640625 42.0315625 29.2640625 42.0315625 31 42 C31 39.69 31 37.38 31 35 C28.69 35 26.38 35 24 35 Z M37 35 C37 37.31 37 39.62 37 42 C39.64 42 42.28 42 45 42 C45 39.69 45 37.38 45 35 C42.36 35 39.72 35 37 35 Z M-5 49 C-5.16666667 52 -5.16666667 52 -5 55 C-3.81575674 56.41577477 -3.81575674 56.41577477 -0.4375 56.0625 C1.2640625 56.0315625 1.2640625 56.0315625 3 56 C3 53.36 3 50.72 3 48 C-1.32320086 47.49633499 -1.32320086 47.49633499 -5 49 Z M9 49 C8.95907063 51.33297433 8.95758277 53.66705225 9 56 C11.64 56 14.28 56 17 56 C17 53.36 17 50.72 17 48 C12.67679914 47.49633499 12.67679914 47.49633499 9 49 Z M37 48 C37 50.64 37 53.28 37 56 C39.64 56 42.28 56 45 56 C45.04241723 53.66705225 45.04092937 51.33297433 45 49 C43.81575674 47.58422523 43.81575674 47.58422523 40.4375 47.9375 C38.7359375 47.9684375 38.7359375 47.9684375 37 48 Z M-5 62 C-4.67 64.64 -4.34 67.28 -4 70 C-1.69 70 0.62 70 3 70 C3 67.36 3 64.72 3 62 C0.36 62 -2.28 62 -5 62 Z M9 62 C9 64.64 9 67.28 9 70 C11.64 70 14.28 70 17 70 C17 67.36 17 64.72 17 62 C14.36 62 11.72 62 9 62 Z M37 62 C37 64.64 37 67.28 37 70 C39.31 70 41.62 70 44 70 C44.33 71.32 44.66 72.64 45 74 C45.66 71.69 46.32 69.38 47 67 C46.34 67 45.68 67 45 67 C45 65.35 45 63.7 45 62 C42.36 62 39.72 62 37 62 Z " fill="#7ECBBC" transform="translate(378,167)"/>
<path d="M0 0 C2.18746644 4.40938118 3.07801125 9.2226291 4.125 14 C4.30675781 14.7940625 4.48851562 15.588125 4.67578125 16.40625 C5.54658643 20.33469443 6.24506516 23.94825598 6 28 C6.66 28 7.32 28 8 28 C8.103125 26.824375 8.20625 25.64875 8.3125 24.4375 C8.809389 19.97969581 9.57963869 15.58798111 10.4375 11.1875 C10.68371094 9.92292969 10.92992187 8.65835938 11.18359375 7.35546875 C12.24263764 3.00274768 12.88267251 0.79030481 16.5625 -1.8125 C22.33227884 -3.80569633 27.50133548 -2.87086975 33.0625 -0.5 C38.98950981 2.73075485 44.51636872 8.68926435 47 15 C47.25878906 18.35986328 47.25878906 18.35986328 47.265625 22.3203125 C47.26753845 23.0201828 47.2694519 23.7200531 47.27142334 24.44113159 C47.27278057 25.91534791 47.26911645 27.38957637 47.26074219 28.86376953 C47.25000335 31.12429442 47.26066908 33.38403045 47.2734375 35.64453125 C47.27211645 37.07812676 47.2695552 38.51172177 47.265625 39.9453125 C47.26336914 41.25000488 47.26111328 42.55469727 47.25878906 43.89892578 C47 47 47 47 45 49 C37.26876848 50.46912673 29.11970414 50.14708412 21.28125 50.1328125 C19.51255554 50.13424759 19.51255554 50.13424759 17.70812988 50.13571167 C15.23071234 50.13638807 12.75329298 50.13457174 10.27587891 50.13037109 C6.51070121 50.12501522 2.74564279 50.1303346 -1.01953125 50.13671875 C-3.44010443 50.13605787 -5.86067753 50.13477651 -8.28125 50.1328125 C-9.94891418 50.13584885 -9.94891418 50.13584885 -11.65026855 50.13894653 C-31.65302864 50.07973207 -31.65302864 50.07973207 -36 46 C-37.25940976 42.22177072 -37.14517402 38.68393314 -37.125 34.75 C-37.12886719 34.01136719 -37.13273437 33.27273437 -37.13671875 32.51171875 C-37.12859717 27.90678461 -36.75710341 23.54262046 -36 19 C-34.68 18.67 -33.36 18.34 -32 18 C-32.144375 17.01 -32.28875 16.02 -32.4375 15 C-32.4190466 10.4420105 -30.187478 8.04307191 -27.125 4.86328125 C-18.85420232 -2.3888704 -10.21142617 -5.10571308 0 0 Z " fill="#7BC9BA" transform="translate(458,222)"/>
<path d="M0 0 C0 0.66 0 1.32 0 2 C0.99 2.33 1.98 2.66 3 3 C8.00456385 9.16233608 9.96654407 15.13785621 10 23 C10.99 23.33 11.98 23.66 13 24 C13.08114106 25.77007714 13.13925505 27.54122098 13.1875 29.3125 C13.23970703 30.79169922 13.23970703 30.79169922 13.29296875 32.30078125 C13 35 13 35 11.67578125 36.85546875 C10 38 10 38 7 38 C6.8453125 38.8353125 6.8453125 38.8353125 6.6875 39.6875 C5.85821592 42.4769101 4.65700944 44.6139064 3 47 C2.34 47 1.68 47 1 47 C1 47.66 1 48.32 1 49 C-0.45804169 49.81302325 -1.91644315 50.62540131 -3.375 51.4375 C-4.18710937 51.88996094 -4.99921875 52.34242188 -5.8359375 52.80859375 C-9.96784635 55.08338111 -13.30369199 55.60597523 -18 55 C-21.13106246 53.90487482 -24.05558735 52.52107624 -27 51 C-27.66 50.67 -28.32 50.34 -29 50 C-29 49.34 -29 48.68 -29 48 C-29.86625 47.7215625 -29.86625 47.7215625 -30.75 47.4375 C-33.51033707 45.67395132 -34.4450565 43.57862075 -35.921875 40.71875 C-37.01289088 38.73081813 -37.01289088 38.73081813 -39.6875 37.125 C-42.75895745 34.30257964 -42.90015748 32.15954451 -43.14453125 28.09765625 C-42.94945609 25.26643021 -41.84293335 24.11596051 -40 22 C-39.54172423 20.10142894 -39.08600121 18.20210534 -38.65625 16.296875 C-37.26799809 11.43799332 -35.31829756 5.38093537 -30.8359375 2.7109375 C-30.23007812 2.47632813 -29.62421875 2.24171875 -29 2 C-29 1.34 -29 0.68 -29 0 C-20.10359289 -5.51577241 -8.81049479 -7.29144396 0 0 Z M-32 17 C-34.13175017 23.39525052 -33.58310593 30.04064565 -30.90625 36.1875 C-28.08805072 41.82389856 -25.11345368 45.86209282 -19 48 C-12.4924672 49.1287402 -8.36667772 47.65390824 -3 44 C-3 43.34 -3 42.68 -3 42 C-2.34 42 -1.68 42 -1 42 C-0.16235732 40.04350603 0.66999059 38.08474444 1.5 36.125 C1.9640625 35.03445312 2.428125 33.94390625 2.90625 32.8203125 C4.12052456 30.19338071 4.12052456 30.19338071 4 28 C3.1646875 27.77957031 3.1646875 27.77957031 2.3125 27.5546875 C-4.69714151 25.49442125 -10.1906627 22.24829626 -15 16.6875 C-20.37353132 12.15358294 -26.50014681 13.85722675 -32 17 Z " fill="#7AC4B6" transform="translate(479,166)"/>
<path d="M0 0 C11.22 0 22.44 0 34 0 C34 0.99 34 1.98 34 3 C33.34 3 32.68 3 32 3 C32.495 3.99 32.495 3.99 33 5 C33.13415472 7.6723621 33.04318541 10.32250488 33 13 C34.43739513 13.02712066 35.87493863 13.04645067 37.3125 13.0625 C38.11300781 13.07410156 38.91351563 13.08570313 39.73828125 13.09765625 C42.16861334 13.09657855 42.16861334 13.09657855 45 12 C46.87824891 13.87824891 46.39102397 17.03935276 46.5625 19.5625 C46.64628906 20.76003906 46.73007812 21.95757812 46.81640625 23.19140625 C46.87699219 24.11824219 46.93757813 25.04507813 47 26 C49.31 26.33 51.62 26.66 54 27 C53.505 28.485 53.505 28.485 53 30 C53.99 30.33 54.98 30.66 56 31 C53.03 31 50.06 31 47 31 C47 33.97 47 36.94 47 40 C49.31 40 51.62 40 54 40 C54 41.32 54 42.64 54 44 C50.99633486 45.00122171 49.02260407 45.12112011 45.88598633 45.11352539 C44.84513382 45.11344986 43.80428131 45.11337433 42.73188782 45.11329651 C41.60993515 45.10813522 40.48798248 45.10297394 39.33203125 45.09765625 C37.60710701 45.09553383 37.60710701 45.09553383 35.84733582 45.09336853 C32.16903092 45.08776429 28.49078655 45.07521104 24.8125 45.0625 C22.32096442 45.05748555 19.82942789 45.05292255 17.33789062 45.04882812 C11.22523971 45.03779347 5.11262418 45.02105118 -1 45 C-0.51660156 44.55785156 -0.03320312 44.11570313 0.46484375 43.66015625 C2.4268147 41.53843194 2.49735081 39.80047404 3 37 C3.66 36.34 4.32 35.68 5 35 C5 36.65 5 38.3 5 40 C7.64 40 10.28 40 13 40 C13 37.03 13 34.06 13 31 C11.35 31 9.7 31 8 31 C8 30.67 8 30.34 8 30 C10.31 30 12.62 30 15 30 C15 30.66 15 31.32 15 32 C15.99 32 16.98 32 18 32 C18 34.64 18 37.28 18 40 C21.3 40 24.6 40 28 40 C27.90460938 39.22914063 27.80921875 38.45828125 27.7109375 37.6640625 C27.60007812 36.66117188 27.48921875 35.65828125 27.375 34.625 C27.20097656 33.12839844 27.20097656 33.12839844 27.0234375 31.6015625 C27.01570313 30.74304688 27.00796875 29.88453125 27 29 C27.66 28.34 28.32 27.68 29 27 C28.67 26.67 28.34 26.34 28 26 C27.54540142 23.34536879 27.29756762 20.67810862 27 18 C24.36 18 21.72 18 19 18 C18.67 20.64 18.34 23.28 18 26 C16 25 16 25 15 24 C14.67 25.32 14.34 26.64 14 28 C13.67 28 13.34 28 13 28 C13 24.7 13 21.4 13 18 C10.69 18.33 8.38 18.66 6 19 C5.67 21.97 5.34 24.94 5 28 C5.66 28.33 6.32 28.66 7 29 C5.02 30.32 3.04 31.64 1 33 C1 32.34 1 31.68 1 31 C0.34 31 -0.32 31 -1 31 C-1.05786668 27.20839703 -1.09355054 23.41690689 -1.125 19.625 C-1.14175781 18.54476562 -1.15851563 17.46453125 -1.17578125 16.3515625 C-1.18222656 15.3203125 -1.18867188 14.2890625 -1.1953125 13.2265625 C-1.20578613 12.27346191 -1.21625977 11.32036133 -1.22705078 10.33837891 C-1 8 -1 8 1 6 C1.66 6.33 2.32 6.66 3 7 C3.33 5.35 3.66 3.7 4 2 C2.68 1.34 1.36 0.68 0 0 Z M6 5 C5.06576355 8.01031744 4.95550089 8.86650268 6 12 C8.31 12 10.62 12 13 12 C13 9.69 13 7.38 13 5 C10.69 5 8.38 5 6 5 Z " fill="#7FCABC" transform="translate(368,197)"/>
<path d="M0 0 C18.44860054 -0.72064846 18.44860054 -0.72064846 23.6171875 3.2890625 C26.17822241 6.45780061 27.17654971 10.06287831 28 14 C28.4125 13.21625 28.825 12.4325 29.25 11.625 C31.1298327 8.80525095 31.92391254 8.18898416 35 7 C37.4375 6.734375 37.4375 6.734375 40 6.75 C40.845625 6.74484375 41.69125 6.7396875 42.5625 6.734375 C45.2035628 7.02218313 46.7843089 7.54535062 49 9 C50.75 12.125 50.75 12.125 52 15 C52.598125 14.05125 53.19625 13.1025 53.8125 12.125 C56 9 56 9 59 7 C61.33984375 6.734375 61.33984375 6.734375 63.9375 6.75 C64.79214844 6.74484375 65.64679688 6.7396875 66.52734375 6.734375 C69.11974567 7.01286367 70.76514234 7.69330828 73 9 C73 10.32 73 11.64 73 13 C69.17498723 14.3770046 65.93867692 13.65644615 62 13 C61.34 13 60.68 13 60 13 C59.70437633 18.32170494 59.70437633 18.32170494 62 23 C65.3 22.67 68.6 22.34 72 22 C72.99 23.98 72.99 23.98 74 26 C68.96652223 29.02008666 65.72319081 29.54506579 60 29 C56.26940785 27.34195904 54.22615506 25.39781562 52 22 C51.21625 22.969375 50.4325 23.93875 49.625 24.9375 C48.08711295 26.83962346 47.20740087 27.89629957 45 29 C39.57805915 29.55391144 35.43030313 29.49054186 31 26 C28.64046906 23.64046906 28.50858587 22.22104383 28 19 C27.34 19.99 26.68 20.98 26 22 C22.85188608 25.48845056 20.50483878 27.64854837 16 29 C13.18156537 29.13802324 10.49667223 29.18976313 7.6875 29.125 C3.8821875 29.063125 3.8821875 29.063125 0 29 C0 19.43 0 9.86 0 0 Z M6 7 C5.90002358 9.49058914 5.86120373 11.94727395 5.875 14.4375 C5.87113281 15.13166016 5.86726562 15.82582031 5.86328125 16.54101562 C5.80640165 20.39769757 5.80640165 20.39769757 7 24 C12.70035501 24.4560284 15.54784247 23.60412752 20 20 C21.56935594 16.86128812 21.35201103 14.46144178 21 11 C19.21013047 7.8764117 19.21013047 7.8764117 16 6 C10.65644264 5.117007 10.65644264 5.117007 6 7 Z M36.25 13.3125 C34.79696921 15.09146679 34.79696921 15.09146679 34 18 C35.15661157 20.20807663 36.22677434 22.22677434 38 24 C40.41537838 24.41717279 40.41537838 24.41717279 43 24 C45.00965774 22.40383995 45.00965774 22.40383995 46 20 C45.7434556 16.49389321 44.9814066 14.9721099 43 12 C40.08692999 11.55183538 38.63753448 11.52184914 36.25 13.3125 Z " fill="#D8DAD9" transform="translate(228,183)"/>
<path d="M0 0 C20.46 0 40.92 0 62 0 C64.19062416 4.38124831 63.26832802 10.25331344 63.29516602 15.12084961 C63.31235449 17.29410239 63.35623807 19.46582346 63.40039062 21.63867188 C63.41052026 23.0260305 63.41903552 24.41340204 63.42578125 25.80078125 C63.44036377 27.06059814 63.45494629 28.32041504 63.4699707 29.6184082 C62.92090441 33.56911847 61.64363102 35.09835889 59 38 C58.63074577 40.14145969 58.63074577 40.14145969 58.9375 42.1875 C58.958125 43.445625 58.97875 44.70375 59 46 C58.01 46.66 57.02 47.32 56 48 C55.06934867 45.39417629 54.85082593 44.35801776 55.9375 41.75 C56.4634375 40.88375 56.4634375 40.88375 57 40 C56.34 40 55.68 40 55 40 C55 38.35 55 36.7 55 35 C52.36 35 49.72 35 47 35 C47 34.67 47 34.34 47 34 C49.97 33.505 49.97 33.505 53 33 C53 32.34 53 31.68 53 31 C50.69 30.34 48.38 29.68 46 29 C45.67 24.71 45.34 20.42 45 16 C43.68 16.33 42.36 16.66 41 17 C38.29234605 16.84682979 35.68741267 16.4031119 33 16 C33.33 15.34 33.66 14.68 34 14 C36.31 14.33 38.62 14.66 41 15 C41 12.69 41 10.38 41 8 C38.69 8 36.38 8 34 8 C33.67 9.32 33.34 10.64 33 12 C32.505 9.03 32.505 9.03 32 6 C32.66 6 33.32 6 34 6 C34 5.01 34 4.02 34 3 C22.78 3 11.56 3 0 3 C0 2.01 0 1.02 0 0 Z M47 8 C47 10.31 47 12.62 47 15 C49.64 15 52.28 15 55 15 C55 12.69 55 10.38 55 8 C52.36 8 49.72 8 47 8 Z M47 21 C47 23.64 47 26.28 47 29 C49.64 29 52.28 29 55 29 C55.04241723 26.66705225 55.04092937 24.33297433 55 22 C53.81575674 20.58422523 53.81575674 20.58422523 50.4375 20.9375 C48.7359375 20.9684375 48.7359375 20.9684375 47 21 Z " fill="#79C2B4" transform="translate(368,194)"/>
<path d="M0 0 C2.31 0 4.62 0 7 0 C9.97 5.28 12.94 10.56 16 16 C18.64 10.72 21.28 5.44 24 0 C26.31 0 28.62 0 31 0 C31 9.57 31 19.14 31 29 C29.02 29 27.04 29 25 29 C24.67 24.38 24.34 19.76 24 15 C21.03 20.445 21.03 20.445 18 26 C16.35 26 14.7 26 13 26 C12.15930585 24.39967863 11.32768495 22.79458829 10.5 21.1875 C10.0359375 20.29417969 9.571875 19.40085938 9.09375 18.48046875 C8 16 8 16 8 13 C7.34 13 6.68 13 6 13 C6 18.28 6 23.56 6 29 C4.02 29 2.04 29 0 29 C0 19.43 0 9.86 0 0 Z " fill="#DEDFDF" transform="translate(171,183)"/>
<path d="M0 0 C2.701875 -0.0825 5.40375 -0.165 8.1875 -0.25 C9.02949951 -0.28641602 9.87149902 -0.32283203 10.73901367 -0.36035156 C14.62283785 -0.41759561 16.60133851 -0.2369306 20.0234375 1.796875 C22 4 22 4 22.4375 7.5 C22.05282802 10.57737588 21.64756442 12.4256806 20 15 C20.66 15 21.32 15 22 15 C23.70401547 17.60614131 24.00613718 18.89975932 23.8125 22.0625 C22.97659817 25.08460663 22.52765737 26.22127815 20 28 C15.94384044 29.23737327 11.95004921 29.1103626 7.75 29.0625 C5.1925 29.041875 2.635 29.02125 0 29 C0 19.43 0 9.86 0 0 Z M6 6 C6.33 7.65 6.66 9.3 7 11 C9.64 11 12.28 11 15 11 C15.59070014 9.05396726 15.59070014 9.05396726 16 7 C14.99163938 5.76732652 14.99163938 5.76732652 12.93359375 5.90234375 C11.69802734 5.91974609 11.69802734 5.91974609 10.4375 5.9375 C9.19806641 5.95103516 9.19806641 5.95103516 7.93359375 5.96484375 C6.97646484 5.98224609 6.97646484 5.98224609 6 6 Z M6 17 C6 19.31 6 21.62 6 24 C7.8871875 24.061875 7.8871875 24.061875 9.8125 24.125 C10.52019531 24.14820313 11.22789063 24.17140625 11.95703125 24.1953125 C14.31359719 24.13254462 14.31359719 24.13254462 17 22 C16.50243908 19.24358584 16.50243908 19.24358584 15 17 C13.48071962 16.92820036 11.95832518 16.91607993 10.4375 16.9375 C9.19806641 16.95103516 9.19806641 16.95103516 7.93359375 16.96484375 C6.97646484 16.98224609 6.97646484 16.98224609 6 17 Z " fill="#E0E1E1" transform="translate(72,183)"/>
<path d="M0 0 C0.33 0 0.66 0 1 0 C1 1.65 1 3.3 1 5 C1.66 5.33 2.32 5.66 3 6 C3.99 5.34 4.98 4.68 6 4 C6.08636719 4.90621094 6.17273438 5.81242188 6.26171875 6.74609375 C7.21093549 14.97554164 8.1923342 22.59996671 14.56640625 28.43359375 C19.02843309 31.42553286 23.76138498 31.8550835 29 31 C31.87146994 29.63002843 31.87146994 29.63002843 34 28 C34.66 28 35.32 28 36 28 C36 27.34 36 26.68 36 26 C36.66 26 37.32 26 38 26 C38.99 23.03 39.98 20.06 41 17 C41.495 18.98 41.495 18.98 42 21 C42.495 20.505 42.495 20.505 43 20 C44.66617115 19.95936168 46.33388095 19.957279 48 20 C48.495 20.99 48.495 20.99 49 22 C48.01 22 47.02 22 46 22 C45.896875 22.556875 45.79375 23.11375 45.6875 23.6875 C44.85821592 26.4769101 43.65700944 28.6139064 42 31 C41.34 31 40.68 31 40 31 C40 31.66 40 32.32 40 33 C38.54195831 33.81302325 37.08355685 34.62540131 35.625 35.4375 C34.81289063 35.88996094 34.00078125 36.34242188 33.1640625 36.80859375 C29.03215365 39.08338111 25.69630801 39.60597523 21 39 C17.86893754 37.90487482 14.94441265 36.52107624 12 35 C11.34 34.67 10.68 34.34 10 34 C10 33.34 10 32.68 10 32 C9.4225 31.814375 8.845 31.62875 8.25 31.4375 C5.48966293 29.67395132 4.5549435 27.57862075 3.078125 24.71875 C1.98710912 22.73081813 1.98710912 22.73081813 -0.6875 21.125 C-3.75721866 18.30417745 -3.89685445 16.16390056 -4.1484375 12.10546875 C-3.9499732 9.29040935 -2.8570642 8.07134084 -1 6 C-0.27954633 2.84881675 -0.27954633 2.84881675 0 0 Z " fill="#6EA69B" transform="translate(440,182)"/>
<path d="M0 0 C17.93940504 -0.70075801 17.93940504 -0.70075801 23.65234375 3.515625 C27.2864556 7.51841487 27.36877175 11.32776531 27.25390625 16.52734375 C26.80329139 20.91563919 25.25449903 23.82643639 22.0625 26.8125 C17.53155707 29.42122472 12.84609207 29.12057366 7.75 29.0625 C5.1925 29.041875 2.635 29.02125 0 29 C0 19.43 0 9.86 0 0 Z M6 7 C5.90002358 9.49058914 5.86120373 11.94727395 5.875 14.4375 C5.87113281 15.13166016 5.86726562 15.82582031 5.86328125 16.54101562 C5.80640165 20.39769757 5.80640165 20.39769757 7 24 C12.70035501 24.4560284 15.54784247 23.60412752 20 20 C21.56935594 16.86128812 21.35201103 14.46144178 21 11 C19.21013047 7.8764117 19.21013047 7.8764117 16 6 C10.65644264 5.117007 10.65644264 5.117007 6 7 Z " fill="#DCDEDD" transform="translate(228,183)"/>
<path d="M0 0 C0.66 0 1.32 0 2 0 C2 1.32 2 2.64 2 4 C3.65 4.33 5.3 4.66 7 5 C6.1875 7.4375 6.1875 7.4375 5 10 C4.01 10.33 3.02 10.66 2 11 C1.67 18.59 1.34 26.18 1 34 C2.32 34 3.64 34 5 34 C7.10232344 31.1315587 7.10232344 31.1315587 8 28 C14.875 28.875 14.875 28.875 16 30 C16.33 29.01 16.66 28.02 17 27 C19 28 19 28 20 29 C19.979375 27.700625 19.95875 26.40125 19.9375 25.0625 C19.91600546 23.70834367 19.92851801 22.35243917 20 21 C21 20 21 20 22.8125 19.8671875 C23.534375 19.86976563 24.25625 19.87234375 25 19.875 C25.721875 19.87242187 26.44375 19.86984375 27.1875 19.8671875 C29 20 29 20 30 21 C30.14115161 23.67058851 30.04247107 26.32432238 30 29 C30.66 29.33 31.32 29.66 32 30 C31.34 30.99 30.68 31.98 30 33 C29.75849227 35.51584891 29.75849227 35.51584891 29.875 38.1875 C29.90207031 39.53908203 29.90207031 39.53908203 29.9296875 40.91796875 C29.95289063 41.60503906 29.97609375 42.29210937 30 43 C29.67 43 29.34 43 29 43 C29 40.36 29 37.72 29 35 C26.36 35 23.72 35 21 35 C21 37.64 21 40.28 21 43 C20.67 43 20.34 43 20 43 C20 40.36 20 37.72 20 35 C19.01 35 18.02 35 17 35 C17 34.34 17 33.68 17 33 C16.34 33.66 15.68 34.32 15 35 C12.31160615 35.26991906 9.70858064 35.08737357 7 35 C7.33 35.66 7.66 36.32 8 37 C8.039992 38.99960012 8.04346799 41.00047242 8 43 C7.34 42.01 6.68 41.02 6 40 C5.71125 40.969375 5.4225 41.93875 5.125 42.9375 C4 46 4 46 2 47 C18.83 47.33 35.66 47.66 53 48 C53.495 47.01 53.495 47.01 54 46 C54.33 46.99 54.66 47.98 55 49 C36.85 49 18.7 49 0 49 C0 32.83 0 16.66 0 0 Z M21 22 C20.95907063 24.33297433 20.95758277 26.66705225 21 29 C23.64 29 26.28 29 29 29 C29 26.36 29 23.72 29 21 C24.67679914 20.49633499 24.67679914 20.49633499 21 22 Z " fill="#74B7AB" transform="translate(366,194)"/>
<path d="M0 0 C1.65 0 3.3 0 5 0 C6.94090826 1.94090826 6.39919435 5.47293902 6.5625 8.0625 C6.64628906 9.35285156 6.73007813 10.64320313 6.81640625 11.97265625 C6.87699219 12.97167969 6.93757812 13.97070312 7 15 C7.845625 14.01 8.69125 13.02 9.5625 12 C12.26449693 9.25286231 12.78228878 9.02106883 16.875 8.625 C17.90625 8.74875 18.9375 8.8725 20 9 C18.4707257 12.44086718 16.37237071 15.09239931 14 18 C14.5053125 18.77085937 15.010625 19.54171875 15.53125 20.3359375 C16.1809375 21.33882812 16.830625 22.34171875 17.5 23.375 C18.1496875 24.37273437 18.799375 25.37046875 19.46875 26.3984375 C21 29 21 29 21 31 C17.8125 31.4375 17.8125 31.4375 14 31 C12.35047063 29.33337706 11.23551361 27.64361515 10.04296875 25.62890625 C9.0873756 23.83031155 9.0873756 23.83031155 7 23 C6.67 25.64 6.34 28.28 6 31 C4.02 31 2.04 31 0 31 C0 20.77 0 10.54 0 0 Z " fill="#D4D5D5" transform="translate(148,181)"/>
<path d="M0 0 C1.98 0 3.96 0 6 0 C7.65 3.63 9.3 7.26 11 11 C13.22825644 8.77174356 13.69239369 7.34238372 14.625 4.375 C14.88539063 3.55773437 15.14578125 2.74046875 15.4140625 1.8984375 C15.60742188 1.27195313 15.80078125 0.64546875 16 0 C17.98 0 19.96 0 22 0 C21.36269976 5.02759076 19.887179 9.37609422 18.0625 14.0625 C17.79759766 14.75666016 17.53269531 15.45082031 17.25976562 16.16601562 C15.87259373 19.79056156 14.45223759 23.40097641 13 27 C12.34 27 11.68 27 11 27 C11 27.66 11 28.32 11 29 C3.375 30.25 3.375 30.25 0 28 C0.66 26.35 1.32 24.7 2 23 C3.65 23.33 5.3 23.66 7 24 C6.64686762 17.76132787 4.93699087 13.19901364 2.15625 7.61328125 C1.02460257 5.05560513 0.43656039 2.75330697 0 0 Z " fill="#D8D9D9" transform="translate(204,190)"/>
<path d="M0 0 C3.00197464 1.80118478 4.45166366 2.90332732 6 6 C6.12114921 7.64255791 6.17540767 9.29052478 6.1875 10.9375 C6.20167969 11.81277344 6.21585938 12.68804687 6.23046875 13.58984375 C6 16 6 16 4 19 C3.34 19 2.68 19 2 19 C2 19.66 2 20.32 2 21 C-3.03903455 22.67967818 -8.05140623 22.87064828 -12.9375 20.6875 C-15.33564882 18.72537823 -16.82434066 17.07233902 -17.3359375 13.94921875 C-17.4308413 8.45428863 -16.69335434 5.34512275 -13 1 C-9.0649579 -0.96752105 -4.2894478 -0.46422595 0 0 Z M-9.9375 6.0625 C-11.6490104 9.18348955 -10.79291991 11.64533884 -10 15 C-8.10244856 17.34973818 -8.10244856 17.34973818 -4.875 17.125 C-3.451875 17.063125 -3.451875 17.063125 -2 17 C-0.04856885 14.13024831 -0.01069048 12.87385237 -0.3125 9.3125 C-0.64919734 6.16791717 -0.64919734 6.16791717 -2 5 C-5.05760057 4.73412169 -7.20840805 4.56590119 -9.9375 6.0625 Z " fill="#D8D9D8" transform="translate(114,190)"/>
<path d="M0 0 C1.29550781 -0.02126953 1.29550781 -0.02126953 2.6171875 -0.04296875 C5.31611813 0.20506382 6.86285306 0.71367699 9.125 2.1875 C11.40447698 5.60671547 11.45013105 7.09060177 11.5 11.125 C11.52835938 12.16527344 11.55671875 13.20554688 11.5859375 14.27734375 C11.01661966 17.87176569 9.96123738 18.98096875 7.125 21.1875 C2.30049824 22.79566725 -2.0643338 22.99224053 -6.6875 20.9375 C-10.55470001 17.84374 -11.72245581 16.36971746 -12.375 11.3125 C-12.21460164 6.54510416 -10.21779539 4.45070502 -6.875 1.1875 C-4.42528376 -0.03735812 -2.73265539 0.02027192 0 0 Z M-3.625 6.375 C-5.26202969 8.74869305 -5.80439767 10.29280438 -5.875 13.1875 C-4.35481752 15.62445474 -4.35481752 15.62445474 -1.875 17.1875 C0.79334966 17.52248301 0.79334966 17.52248301 3.125 17.1875 C3.125 16.5275 3.125 15.8675 3.125 15.1875 C3.785 15.1875 4.445 15.1875 5.125 15.1875 C5.16625 13.90875 5.2075 12.63 5.25 11.3125 C5.28480469 10.23355469 5.28480469 10.23355469 5.3203125 9.1328125 C5.30831689 6.94886355 5.30831689 6.94886355 3.125 5.1875 C0.30375799 4.82580231 -1.24156913 4.75767191 -3.625 6.375 Z " fill="#DBDDDC" transform="translate(132.875,189.8125)"/>
<path d="M0 0 C2.95733901 1.23222459 4.37110863 2.19142538 6.3125 4.6875 C7.56052677 8.88540822 7.56052677 13.11459178 6.3125 17.3125 C3.97766367 20.31443243 1.65878036 21.77722369 -2.15234375 22.2890625 C-6.91051647 22.46323854 -10.18788485 22.11900331 -14 19 C-16.82368571 14.76447144 -16.66653757 10.97522686 -16 6 C-11.89297748 -0.70813679 -7.33818474 -0.647147 0 0 Z M-8.8125 6.125 C-10.55198782 8.87155972 -10.39769128 10.81846974 -10 14 C-8.93654948 15.98029682 -8.93654948 15.98029682 -7 17 C-4.14519831 17.42822025 -2.65507108 17.40659584 -0.1875 15.875 C1.55198782 13.12844028 1.39769128 11.18153026 1 8 C-0.06345052 6.01970318 -0.06345052 6.01970318 -2 5 C-4.85480169 4.57177975 -6.34492892 4.59340416 -8.8125 6.125 Z " fill="#DFE0E0" transform="translate(335,190)"/>
<path d="M0 0 C1.5631897 0.00785522 1.5631897 0.00785522 3.15795898 0.01586914 C4.28266602 0.0190918 5.40737305 0.02231445 6.56616211 0.02563477 C7.75016602 0.03401367 8.93416992 0.04239258 10.15405273 0.05102539 C11.34192383 0.05553711 12.52979492 0.06004883 13.75366211 0.06469727 C16.69967499 0.07652864 19.64558954 0.09301252 22.59155273 0.11352539 C22.59155273 1.10352539 22.59155273 2.09352539 22.59155273 3.11352539 C21.93155273 3.11352539 21.27155273 3.11352539 20.59155273 3.11352539 C20.59155273 6.08352539 20.59155273 9.05352539 20.59155273 12.11352539 C18.61155273 12.77352539 16.63155273 13.43352539 14.59155273 14.11352539 C14.59155273 14.77352539 14.59155273 15.43352539 14.59155273 16.11352539 C8.04340459 15.23204391 8.04340459 15.23204391 5.68530273 14.61352539 C3.23868938 14.02925952 0.84555339 13.78165703 -1.65844727 13.55102539 C-2.55047852 13.46723633 -3.44250977 13.38344727 -4.36157227 13.29711914 C-5.37477539 13.20624023 -5.37477539 13.20624023 -6.40844727 13.11352539 C-6.07844727 11.79352539 -5.74844727 10.47352539 -5.40844727 9.11352539 C-5.40844727 10.10352539 -5.40844727 11.09352539 -5.40844727 12.11352539 C-3.09844727 12.11352539 -0.78844727 12.11352539 1.59155273 12.11352539 C1.59155273 9.80352539 1.59155273 7.49352539 1.59155273 5.11352539 C-1.04844727 5.44352539 -3.68844727 5.77352539 -6.40844727 6.11352539 C-6.40844727 5.45352539 -6.40844727 4.79352539 -6.40844727 4.11352539 C-4.42844727 3.78352539 -2.44844727 3.45352539 -0.40844727 3.11352539 C-1.39844727 2.45352539 -2.38844727 1.79352539 -3.40844727 1.11352539 C-2.40844727 0.11352539 -2.40844727 0.11352539 0 0 Z " fill="#78C2B4" transform="translate(379.408447265625,196.886474609375)"/>
<path d="M0 0 C20.46 0 40.92 0 62 0 C63.48679725 2.97359449 63.11112605 5.66299179 63.09765625 8.9765625 C63.0962413 9.66181 63.09482635 10.3470575 63.09336853 11.05307007 C63.08776675 13.24375761 63.07521406 15.4343433 63.0625 17.625 C63.05748522 19.10937352 63.05292228 20.59374865 63.04882812 22.078125 C63.03779677 25.71878315 63.02053099 29.35938164 63 33 C62.01 32.67 61.02 32.34 60 32 C60.33 22.43 60.66 12.86 61 3 C54.73 3.33 48.46 3.66 42 4 C42 5.32 42 6.64 42 8 C39.36 8 36.72 8 34 8 C33.67 9.32 33.34 10.64 33 12 C32.505 9.03 32.505 9.03 32 6 C32.66 6 33.32 6 34 6 C34 5.01 34 4.02 34 3 C22.78 3 11.56 3 0 3 C0 2.01 0 1.02 0 0 Z " fill="#45635F" transform="translate(368,194)"/>
<path d="M0 0 C2.30859375 1.0234375 2.30859375 1.0234375 4 2 C4 3.32 4 4.64 4 6 C0.17498723 7.3770046 -3.06132308 6.65644615 -7 6 C-7.66 6 -8.32 6 -9 6 C-9.29562367 11.32170494 -9.29562367 11.32170494 -7 16 C-3.7 15.67 -0.4 15.34 3 15 C3.66 16.32 4.32 17.64 5 19 C-0.03347777 22.02008666 -3.27680919 22.54506579 -9 22 C-11.9375 20.875 -11.9375 20.875 -14 19 C-14.8125 16.375 -14.8125 16.375 -15 13 C-15.07347656 12.2575 -15.14695312 11.515 -15.22265625 10.75 C-15.47716164 6.78232627 -15.52201721 4.71342352 -13.125 1.4375 C-8.76010886 -0.57034993 -4.73491072 -0.6621176 0 0 Z " fill="#DADCDB" transform="translate(297,190)"/>
<path d="M0 0 C1.98 0 3.96 0 6 0 C6.33 1.65 6.66 3.3 7 5 C8.65 5.33 10.3 5.66 12 6 C12 7.32 12 8.64 12 10 C10.02 10 8.04 10 6 10 C6 13.96 6 17.92 6 22 C7.65 21.67 9.3 21.34 11 21 C11.33 22.65 11.66 24.3 12 26 C8.98131566 27.50934217 6.32702771 27.17510672 3 27 C2.01 26.34 1.02 25.68 0 25 C-0.22137393 22.37302936 -0.28162025 19.99106036 -0.1875 17.375 C-0.17396484 16.66859375 -0.16042969 15.9621875 -0.14648438 15.234375 C-0.1111104 13.48925872 -0.05730221 11.74453392 0 10 C-1.32 10 -2.64 10 -4 10 C-3.67 8.68 -3.34 7.36 -3 6 C-2.01 6 -1.02 6 0 6 C0 4.02 0 2.04 0 0 Z " fill="#D5D7D6" transform="translate(306,185)"/>
<path d="M0 0 C4.29 0 8.58 0 13 0 C13.33 1.32 13.66 2.64 14 4 C12.02 4.66 10.04 5.32 8 6 C7.34 11.28 6.68 16.56 6 22 C4.02 22 2.04 22 0 22 C0 14.74 0 7.48 0 0 Z " fill="#E3E5E4" transform="translate(345,190)"/>
<path d="M0 0 C0.33 0 0.66 0 1 0 C1 1.65 1 3.3 1 5 C1.66 5.33 2.32 5.66 3 6 C3.99 5.34 4.98 4.68 6 4 C6.66 9.61 7.32 15.22 8 21 C2.06855277 21.42981502 2.06855277 21.42981502 -1 21 C-3.58389876 18.33780128 -3.92810146 16.5871714 -4.375 12.9375 C-3.9503536 9.61110319 -3.02013498 8.58577278 -1 6 C-0.27954633 2.84881675 -0.27954633 2.84881675 0 0 Z " fill="#7FC8B9" transform="translate(440,182)"/>
<path d="M0 0 C1.98 0 3.96 0 6 0 C6.33 2.31 6.66 4.62 7 7 C9.97 7.495 9.97 7.495 13 8 C13 8.66 13 9.32 13 10 C12.01 10.495 12.01 10.495 11 11 C11 12.32 11 13.64 11 15 C11.99 15.33 12.98 15.66 14 16 C14 16.66 14 17.32 14 18 C9.38 18 4.76 18 0 18 C0 17.01 0 16.02 0 15 C0.66 15 1.32 15 2 15 C2 11.04 2 7.08 2 3 C1.01 3 0.02 3 -1 3 C-0.67 2.01 -0.34 1.02 0 0 Z M6 9 C7 11 7 11 7 11 Z " fill="#B3B7BA" transform="translate(275,227)"/>
<path d="M0 0 C0.66 0 1.32 0 2 0 C2 1.32 2 2.64 2 4 C3.65 4.33 5.3 4.66 7 5 C6.1875 7.4375 6.1875 7.4375 5 10 C4.01 10.33 3.02 10.66 2 11 C2 22.88 2 34.76 2 47 C18.83 47.33 35.66 47.66 53 48 C53.495 47.01 53.495 47.01 54 46 C54.33 46.99 54.66 47.98 55 49 C36.85 49 18.7 49 0 49 C0 32.83 0 16.66 0 0 Z " fill="#82B4AB" transform="translate(366,194)"/>
<path d="M0 0 C0.99386719 0.02707031 1.98773438 0.05414063 3.01171875 0.08203125 C4.15060547 0.13423828 4.15060547 0.13423828 5.3125 0.1875 C4.9825 2.1675 4.6525 4.1475 4.3125 6.1875 C3.3225 6.1875 2.3325 6.1875 1.3125 6.1875 C1.3125 5.1975 1.3125 4.2075 1.3125 3.1875 C-0.0075 3.5175 -1.3275 3.8475 -2.6875 4.1875 C-3.3753236 6.54117713 -3.3753236 6.54117713 -3.6875 9.1875 C-2.6975 10.6725 -2.6975 10.6725 -1.6875 12.1875 C1.7775 11.6925 1.7775 11.6925 5.3125 11.1875 C4.4375 15.0625 4.4375 15.0625 3.3125 16.1875 C1.3515625 16.390625 1.3515625 16.390625 -1.0625 16.4375 C-1.85398437 16.46328125 -2.64546875 16.4890625 -3.4609375 16.515625 C-5.6875 16.1875 -5.6875 16.1875 -7.453125 14.984375 C-9.08142995 12.61405767 -9.08801705 11.04540924 -9.0625 8.1875 C-9.07023437 7.32125 -9.07796875 6.455 -9.0859375 5.5625 C-8.6875 3.1875 -8.6875 3.1875 -7.51953125 1.38671875 C-4.9457603 -0.2980311 -3.04484138 -0.10746499 0 0 Z " fill="#9FA4A7" transform="translate(80.6875,228.8125)"/>
<path d="M0 0 C0 0.66 0 1.32 0 2 C-0.66 2 -1.32 2 -2 2 C-2.12375 2.5775 -2.2475 3.155 -2.375 3.75 C-3.00648824 6.02335767 -3.88858191 7.9253529 -5 10 C-5.556875 9.814375 -6.11375 9.62875 -6.6875 9.4375 C-9.399133 8.92448835 -11.34371039 9.3359276 -14 10 C-15.25664978 7.09399739 -16 5.20395416 -16 2 C-16.99 1.67 -17.98 1.34 -19 1 C-19 0.67 -19 0.34 -19 0 C-12.42150508 -0.95494281 -6.58183362 -0.8931507 0 0 Z " fill="#9BA1A3" transform="translate(329,235)"/>
<path d="M0 0 C0.33 3.63 0.66 7.26 1 11 C-2.96 11 -6.92 11 -11 11 C-11.99 7.7 -12.98 4.4 -14 1 C-9.36297289 -0.5456757 -4.87528349 -0.05735628 0 0 Z M-7 3 C-6.67 4.32 -6.34 5.64 -6 7 C-5.67 5.68 -5.34 4.36 -5 3 C-5.66 3 -6.32 3 -7 3 Z " fill="#838D92" transform="translate(182,234)"/>
<path d="M0 0 C0 0.66 0 1.32 0 2 C-0.66 2 -1.32 2 -2 2 C-2.50471197 3.76949612 -3.00360685 5.54065223 -3.5 7.3125 C-3.7784375 8.29863281 -4.056875 9.28476563 -4.34375 10.30078125 C-5.11812196 13.02287203 -5.11812196 13.02287203 -5 16 C-7.64 16 -10.28 16 -13 16 C-13 15.01 -13 14.02 -13 13 C-12.01 13 -11.02 13 -10 13 C-9.63740415 9.10209457 -9.65172112 7.47888346 -12 4.25 C-12.66 3.5075 -13.32 2.765 -14 2 C-14 1.34 -14 0.68 -14 0 C-4.58997722 -1.33257403 -4.58997722 -1.33257403 0 0 Z M-7 2 C-6.67 2.66 -6.34 3.32 -6 4 C-5.67 3.34 -5.34 2.68 -5 2 C-5.66 2 -6.32 2 -7 2 Z " fill="#AAB5B6" transform="translate(358,235)"/>
<path d="M0 0 C1.65 0.33 3.3 0.66 5 1 C5.10845031 3.56364483 5.18749744 6.12266279 5.25 8.6875 C5.28351563 9.40873047 5.31703125 10.12996094 5.3515625 10.87304688 C5.4224677 14.75510632 5.2379669 16.60694784 3.171875 20.01953125 C1 22 1 22 -2 22 C-1.34 17.38 -0.68 12.76 0 8 C-0.66 8 -1.32 8 -2 8 C-1.34 5.36 -0.68 2.72 0 0 Z " fill="#868A8C" transform="translate(162,229)"/>
<path d="M0 0 C1.67542976 0.28604898 3.34385343 0.61781233 5 1 C5 3.64 5 6.28 5 9 C7.97 9 10.94 9 14 9 C14 9.33 14 9.66 14 10 C11.36 10 8.72 10 6 10 C5.67 11.98 5.34 13.96 5 16 C3.02 16 1.04 16 -1 16 C-2.46322678 13.07354643 -1.88789453 10.67394481 -1.625 7.4375 C-1.53476562 6.26058594 -1.44453125 5.08367187 -1.3515625 3.87109375 C-1 1 -1 1 0 0 Z " fill="#649C94" transform="translate(378,167)"/>
<path d="M0 0 C0.33 3.3 0.66 6.6 1 10 C-2.63 10 -6.26 10 -10 10 C-11.00000429 5.99998285 -10.80688405 3.94476647 -10 0 C-6.30581799 -1.231394 -3.7943739 -0.64432764 0 0 Z " fill="#BBC2C5" transform="translate(223,235)"/>
<path d="M0 0 C0.99 3.3 1.98 6.6 3 10 C2 11 2 11 -0.28515625 11.09765625 C-1.65994141 11.08025391 -1.65994141 11.08025391 -3.0625 11.0625 C-3.98160156 11.05347656 -4.90070313 11.04445312 -5.84765625 11.03515625 C-6.55792969 11.02355469 -7.26820313 11.01195312 -8 11 C-8.94296589 7.33291043 -9.11421833 4.64653273 -8 1 C-5.29120665 -0.35439668 -2.99066732 -0.06501451 0 0 Z " fill="#889094" transform="translate(340,234)"/>
<path d="M0 0 C2.31 0 4.62 0 7 0 C7.16789126 2.43742131 7.33436133 4.87492546 7.5 7.3125 C7.54769531 8.00279297 7.59539062 8.69308594 7.64453125 9.40429688 C7.83879489 12.27662359 8 15.12013788 8 18 C5.36 18 2.72 18 0 18 C0.495 16.515 0.495 16.515 1 15 C1.22325814 12.94106379 1.40705759 10.87766347 1.5625 8.8125 C1.64628906 7.72582031 1.73007813 6.63914063 1.81640625 5.51953125 C1.87699219 4.68808594 1.93757812 3.85664063 2 3 C1.34 3 0.68 3 0 3 C0 2.01 0 1.02 0 0 Z " fill="#999DA1" transform="translate(244,227)"/>
<path d="M0 0 C0.19412181 1.47831221 0.38012131 2.95769316 0.5625 4.4375 C0.66691406 5.26121094 0.77132813 6.08492187 0.87890625 6.93359375 C0.91886719 7.61550781 0.95882813 8.29742187 1 9 C0 10 0 10 -2.28515625 10.09765625 C-3.65994141 10.08025391 -3.65994141 10.08025391 -5.0625 10.0625 C-5.98160156 10.05347656 -6.90070313 10.04445312 -7.84765625 10.03515625 C-8.55792969 10.02355469 -9.26820313 10.01195312 -10 10 C-11.07174763 6.34811918 -10.76411467 3.73567172 -10 0 C-6.30581799 -1.231394 -3.7943739 -0.64432764 0 0 Z " fill="#B2B9BC" transform="translate(308,235)"/>
<path d="M0 0 C2.5 0.3125 2.5 0.3125 5 1 C6.37252731 3.74505463 6.13229255 6.00327412 6.125 9.0625 C6.12757813 10.14660156 6.13015625 11.23070312 6.1328125 12.34765625 C6 15 6 15 5 16 C2.5 16.125 2.5 16.125 0 16 C-1 15 -1 15 -1.0625 12.4375 C-1.041875 11.633125 -1.02125 10.82875 -1 10 C-2.98 10 -4.96 10 -7 10 C-7 9.67 -7 9.34 -7 9 C-5.02 9 -3.04 9 -1 9 C-1.020625 7.700625 -1.04125 6.40125 -1.0625 5.0625 C-1.08399454 3.70834367 -1.07148199 2.35243917 -1 1 C-0.67 0.67 -0.34 0.34 0 0 Z " fill="#639A90" transform="translate(414,167)"/>
<path d="M0 0 C2.26706067 2.26706067 1.74409224 8.11189811 2 11 C-1.3 11 -4.6 11 -8 11 C-8.94296589 7.33291043 -9.11421833 4.64653273 -8 1 C-5.26752652 -0.36623674 -3.01801098 -0.128426 0 0 Z " fill="#A4AAAE" transform="translate(97,234)"/>
<path d="M0 0 C1.98 0 3.96 0 6 0 C5.39124245 4.60416626 4.15277044 8.56483324 2.4375 12.875 C1.98246094 14.02742187 1.52742187 15.17984375 1.05859375 16.3671875 C0.70925781 17.23601562 0.35992187 18.10484375 0 19 C-0.33 17.68 -0.66 16.36 -1 15 C-1.99 15.33 -2.98 15.66 -4 16 C-5.35304209 11.94087374 -4.15216503 10.22850409 -2.5625 6.3125 C-2.08941406 5.13300781 -1.61632812 3.95351562 -1.12890625 2.73828125 C-0.75636719 1.83464844 -0.38382813 0.93101562 0 0 Z " fill="#D1D2D2" transform="translate(220,190)"/>
<path d="M0 0 C3.3 0 6.6 0 10 0 C10 2.97 10 5.94 10 9 C7.69 9.66 5.38 10.32 3 11 C6.465 12.485 6.465 12.485 10 14 C10 16.64 10 19.28 10 22 C9.67 22 9.34 22 9 22 C8.67 19.69 8.34 17.38 8 15 C5.69 14.67 3.38 14.34 1 14 C1 16.64 1 19.28 1 22 C0.67 22 0.34 22 0 22 C-0.33 17.71 -0.66 13.42 -1 9 C-2.32 9.33 -3.64 9.66 -5 10 C-7.70765395 9.84682979 -10.31258733 9.4031119 -13 9 C-12.67 8.34 -12.34 7.68 -12 7 C-8.04 7 -4.08 7 0 7 C0 4.69 0 2.38 0 0 Z M1 1 C1 3.31 1 5.62 1 8 C3.64 8 6.28 8 9 8 C9 5.69 9 3.38 9 1 C6.36 1 3.72 1 1 1 Z " fill="#689991" transform="translate(414,201)"/>
<path d="M0 0 C0 1.32 0 2.64 0 4 C-1.65 4 -3.3 4 -5 4 C-5 4.66 -5 5.32 -5 6 C-3.35 5.67 -1.7 5.34 0 5 C-0.33 6.32 -0.66 7.64 -1 9 C-3.64 9 -6.28 9 -9 9 C-10.70699172 6.38930678 -11.00187288 5.04682188 -10.875 1.875 C-10 -1 -10 -1 -8.3125 -2.5625 C-4.8677036 -3.21421824 -2.93140265 -1.73219247 0 0 Z " fill="#939C9D" transform="translate(125,236)"/>
<path d="M0 0 C6.27 0 12.54 0 19 0 C18.01 0.495 18.01 0.495 17 1 C17 1.66 17 2.32 17 3 C14.59454362 4.20272819 13.05003047 4.10071472 10.375 4.0625 C9.14910156 4.04896484 9.14910156 4.04896484 7.8984375 4.03515625 C6.95871094 4.01775391 6.95871094 4.01775391 6 4 C6 6.31 6 8.62 6 11 C4.35 11.33 2.7 11.66 1 12 C0.85714286 4.57142857 0.85714286 4.57142857 2 1 C1.34 0.67 0.68 0.34 0 0 Z " fill="#83C9BA" transform="translate(408,197)"/>
<path d="M0 0 C3.3 0 6.6 0 10 0 C10.33 0.99 10.66 1.98 11 3 C10.01 3.99 9.02 4.98 8 6 C7.34 5.67 6.68 5.34 6 5 C6 5.99 6 6.98 6 8 C6.66 8 7.32 8 8 8 C8 8.99 8 9.98 8 11 C5.36 11 2.72 11 0 11 C0 7.33333333 0 3.66666667 0 0 Z " fill="#8F9597" transform="translate(102,234)"/>
<path d="M0 0 C0.77675511 3.39830361 1.19382275 6.51119051 1 10 C0 11 0 11 -1.84765625 11.09765625 C-3.8984375 11.06510417 -5.94921875 11.03255208 -8 11 C-8 7.7 -8 4.4 -8 1 C-5.29120665 -0.35439668 -2.99066732 -0.06501451 0 0 Z " fill="#9DA2A6" transform="translate(193,234)"/>
<path d="M0 0 C1.4540625 0.0309375 1.4540625 0.0309375 2.9375 0.0625 C4.56700412 4.18418689 5.20014601 6.76950357 3.9375 11.0625 C1.2975 11.0625 -1.3425 11.0625 -4.0625 11.0625 C-4.08938151 9.41675434 -4.10884123 7.77088587 -4.125 6.125 C-4.13660156 5.20847656 -4.14820313 4.29195312 -4.16015625 3.34765625 C-4.00919455 -0.18484756 -3.60673121 0.07360676 0 0 Z " fill="#9CA1A4" transform="translate(147.0625,233.9375)"/>
<path d="M0 0 C0.33 1.65 0.66 3.3 1 5 C-0.32 4.67 -1.64 4.34 -3 4 C-3 4.99 -3 5.98 -3 7 C-1.35 7.33 0.3 7.66 2 8 C1.67 8.99 1.34 9.98 1 11 C-5.0546875 11.1953125 -5.0546875 11.1953125 -7 11 C-9 9 -9 9 -9.3125 6.0625 C-9 3 -9 3 -7.875 1.125 C-5.21965017 -0.4682099 -3.03210482 -0.20214032 0 0 Z " fill="#949A9C" transform="translate(272,234)"/>
<path d="M0 0 C1.65 0 3.3 0 5 0 C5.06058594 0.90363281 5.12117188 1.80726563 5.18359375 2.73828125 C5.26738281 3.91777344 5.35117187 5.09726563 5.4375 6.3125 C5.51871094 7.48425781 5.59992188 8.65601563 5.68359375 9.86328125 C5.8867371 13.02590958 5.8867371 13.02590958 7 16 C4.36 16 1.72 16 -1 16 C-1 12.7 -1 9.4 -1 6 C-0.34 6 0.32 6 1 6 C0.67 4.02 0.34 2.04 0 0 Z " fill="#9CA0A2" transform="translate(255,229)"/>
<path d="M0 0 C1.67542976 0.28604898 3.34385343 0.61781233 5 1 C4.98839844 1.66386719 4.97679687 2.32773438 4.96484375 3.01171875 C4.88106591 9.56306787 4.88106591 9.56306787 6 16 C3.36 16 0.72 16 -2 16 C-1.70703125 13.98177083 -1.4140625 11.96354167 -1.12109375 9.9453125 C-0.8315703 7.91859333 -0.8315703 7.91859333 -2 6 C-1.34 6 -0.68 6 0 6 C-0.2784375 4.7934375 -0.2784375 4.7934375 -0.5625 3.5625 C-0.706875 2.716875 -0.85125 1.87125 -1 1 C-0.67 0.67 -0.34 0.34 0 0 Z " fill="#BAC1C2" transform="translate(135,229)"/>
<path d="M0 0 C-0.33 1.32 -0.66 2.64 -1 4 C-2.32 3.67 -3.64 3.34 -5 3 C-4.67 3.99 -4.34 4.98 -4 6 C-2.68 6 -1.36 6 0 6 C-0.33 7.32 -0.66 8.64 -1 10 C-4.375 10.125 -4.375 10.125 -8 10 C-10 8 -10 8 -10.3125 4.5 C-10.209375 3.345 -10.10625 2.19 -10 1 C-6.1496895 -1.56687367 -4.41430237 -0.83288724 0 0 Z " fill="#B5BABC" transform="translate(243,235)"/>
<path d="M0 0 C2.86724686 0.57344937 3.8614515 0.8614515 6 3 C6 3.99 6 4.98 6 6 C5.01 6 4.02 6 3 6 C3 7.32 3 8.64 3 10 C4.32 10.33 5.64 10.66 7 11 C6.01 12.485 6.01 12.485 5 14 C1.875 14.1875 1.875 14.1875 -1 14 C-1 11.36 -1 8.72 -1 6 C-1.66 6 -2.32 6 -3 6 C-2 4 -1 2 0 0 Z " fill="#8F9698" transform="translate(198,231)"/>
<path d="M0 0 C0.66 0.66 1.32 1.32 2 2 C1.67 2.66 1.34 3.32 1 4 C0.34 4 -0.32 4 -1 4 C-1 3.34 -1 2.68 -1 2 C-3.43757413 1.97301578 -5.87484915 1.95316901 -8.3125 1.9375 C-9.00279297 1.92912109 -9.69308594 1.92074219 -10.40429688 1.91210938 C-13.5483025 1.89692094 -15.99420019 1.99806673 -19 3 C-20.20882096 5.00016466 -20.20882096 5.00016466 -21 7 C-21 6.01 -21 5.02 -21 4 C-21.99 3.67 -22.98 3.34 -24 3 C-15.70403856 -2.14349609 -9.48331279 -2.64974916 0 0 Z " fill="#7BAFA3" transform="translate(474,163)"/>
<path d="M0 0 C0.33 1.32 0.66 2.64 1 4 C1.33 3.67 1.66 3.34 2 3 C3.66617115 2.95936168 5.33388095 2.957279 7 3 C7.33 3.66 7.66 4.32 8 5 C7.01 5 6.02 5 5 5 C4.8453125 5.8353125 4.8453125 5.8353125 4.6875 6.6875 C3.85821592 9.4769101 2.65700944 11.6139064 1 14 C0.34 14 -0.32 14 -1 14 C-1.33 14.66 -1.66 15.32 -2 16 C-1.67 14.35 -1.34 12.7 -1 11 C-2.32 10.34 -3.64 9.68 -5 9 C-4.34 9 -3.68 9 -3 9 C-2.01 6.03 -1.02 3.06 0 0 Z " fill="#6CA396" transform="translate(481,199)"/>
<path d="M0 0 C3.03333605 -0.22893102 5.97366814 -0.35414522 9 0 C11.0625 1.875 11.0625 1.875 12 4 C12 4.66 12 5.32 12 6 C11.34 6 10.68 6 10 6 C10 7.65 10 9.3 10 11 C5.32322149 9.49674976 4.19799672 6.1029272 2 2 C1.34 1.34 0.68 0.68 0 0 Z " fill="#70AE9F" transform="translate(440,203)"/>
<path d="M0 0 C-1.42454005 4.35741661 -2.47303998 7.08683934 -6.4375 9.5625 C-10 11 -10 11 -12.4375 10.25 C-12.953125 9.8375 -13.46875 9.425 -14 9 C-12.8125 7 -12.8125 7 -11 5 C-8.3125 4.75 -8.3125 4.75 -6 5 C-6.33 3.68 -6.66 2.36 -7 1 C-4.53721199 -0.231394 -2.7204945 -0.07159196 0 0 Z " fill="#75B2A7" transform="translate(481,209)"/>
<path d="M0 0 C0.33 0 0.66 0 1 0 C1 3.63 1 7.26 1 11 C2.32 11 3.64 11 5 11 C5 11.66 5 12.32 5 13 C5.66 13 6.32 13 7 13 C7.33 12.01 7.66 11.02 8 10 C8.33 10.66 8.66 11.32 9 12 C9.99 12.33 10.98 12.66 12 13 C12 13.66 12 14.32 12 15 C7.38 15 2.76 15 -2 15 C-2 14.01 -2 13.02 -2 12 C-1.34 12 -0.68 12 0 12 C0 8.04 0 4.08 0 0 Z " fill="#919599" transform="translate(277,230)"/>
<path d="M0 0 C0.103125 0.515625 0.20625 1.03125 0.3125 1.5625 C1.50976625 5.80735308 2.85265925 9.85265925 6 13 C4.02 13.66 2.04 14.32 0 15 C-0.66 14.34 -1.32 13.68 -2 13 C-1.34 11.02 -0.68 9.04 0 7 C-1.65 7.66 -3.3 8.32 -5 9 C-3.90931332 5.22454612 -3.0916909 2.52956528 0 0 Z " fill="#6FAA9F" transform="translate(448,168)"/>
<path d="M0 0 C0.99773437 0.02320313 1.99546875 0.04640625 3.0234375 0.0703125 C4.52777344 0.09738281 4.52777344 0.09738281 6.0625 0.125 C6.83335938 0.14820313 7.60421875 0.17140625 8.3984375 0.1953125 C8.0684375 2.1753125 7.7384375 4.1553125 7.3984375 6.1953125 C6.4084375 6.1953125 5.4184375 6.1953125 4.3984375 6.1953125 C4.3984375 5.2053125 4.3984375 4.2153125 4.3984375 3.1953125 C1.53119064 3.76876187 0.536986 4.056764 -1.6015625 6.1953125 C-1.9315625 5.5353125 -2.2615625 4.8753125 -2.6015625 4.1953125 C-3.2615625 4.1953125 -3.9215625 4.1953125 -4.6015625 4.1953125 C-4.9315625 5.1853125 -5.2615625 6.1753125 -5.6015625 7.1953125 C-4.51902891 0.33926643 -4.51902891 0.33926643 0 0 Z " fill="#939799" transform="translate(77.6015625,228.8046875)"/>
<path d="M0 0 C0.33 0 0.66 0 1 0 C1 1.65 1 3.3 1 5 C1.66 5.33 2.32 5.66 3 6 C3.99 5.34 4.98 4.68 6 4 C6.66 9.28 7.32 14.56 8 20 C7.34 19.67 6.68 19.34 6 19 C5.26924352 16.6859378 4.59861742 14.35171131 4 12 C3.01 12.33 2.02 12.66 1 13 C0.87625 12.195625 0.7525 11.39125 0.625 10.5625 C0.315625 9.2940625 0.315625 9.2940625 0 8 C-0.66 7.67 -1.32 7.34 -2 7 C-1.34 4.69 -0.68 2.38 0 0 Z " fill="#66A399" transform="translate(440,182)"/>
<path d="M0 0 C1.98 0 3.96 0 6 0 C6 2.31 6 4.62 6 7 C7.65 6.67 9.3 6.34 11 6 C9.8125 8 9.8125 8 8 10 C6.35 10 4.7 10 3 10 C2.01 6.7 1.02 3.4 0 0 Z " fill="#999FA3" transform="translate(168,235)"/>
<path d="M0 0 C1.98 0 3.96 0 6 0 C6.33 3.3 6.66 6.6 7 10 C5.68 9.67 4.36 9.34 3 9 C3.33 8.67 3.66 8.34 4 8 C2.68 7.67 1.36 7.34 0 7 C-0.33 7.66 -0.66 8.32 -1 9 C-1 7.68 -1 6.36 -1 5 C-0.01 5 0.98 5 2 5 C2 4.34 2 3.68 2 3 C1.01 3 0.02 3 -1 3 C-0.67 2.01 -0.34 1.02 0 0 Z " fill="#BBC3C7" transform="translate(334,234)"/>
<path d="M0 0 C0.99 0.33 1.98 0.66 3 1 C2 3 2 3 -1 4.0625 C-1.99 4.371875 -2.98 4.68125 -4 5 C-4.33 5.33 -4.66 5.66 -5 6 C-4.34 6.66 -3.68 7.32 -3 8 C-3.33 8.66 -3.66 9.32 -4 10 C-6.64 10 -9.28 10 -12 10 C-12 9.34 -12 8.68 -12 8 C-10.35 8 -8.7 8 -7 8 C-7 7.01 -7 6.02 -7 5 C-8.65 4.67 -10.3 4.34 -12 4 C-12 3.67 -12 3.34 -12 3 C-11.30132812 2.86722656 -10.60265625 2.73445312 -9.8828125 2.59765625 C-8.51769531 2.33275391 -8.51769531 2.33275391 -7.125 2.0625 C-6.22007812 1.88847656 -5.31515625 1.71445313 -4.3828125 1.53515625 C-2.00043683 1.10036299 -2.00043683 1.10036299 0 0 Z " fill="#679A91" transform="translate(473,211)"/>
<path d="M0 0 C2 1 2 1 4 4 C4.33 4 4.66 4 5 4 C5 5.65 5 7.3 5 9 C1.67465243 10.10844919 -0.62182575 9.84454356 -4 9 C-3.71125 8.443125 -3.4225 7.88625 -3.125 7.3125 C-1.9586747 4.91505355 -0.9660119 2.48403061 0 0 Z " fill="#B3BABF" transform="translate(320,235)"/>
<path d="M0 0 C5.75 -0.125 5.75 -0.125 8 1 C8 2.32 8 3.64 8 5 C5.36 5 2.72 5 0 5 C-0.33 6.32 -0.66 7.64 -1 9 C-1.33 7.02 -1.66 5.04 -2 3 C-1.34 3 -0.68 3 0 3 C0 2.01 0 1.02 0 0 Z " fill="#699F95" transform="translate(402,197)"/>
<path d="M0 0 C1.32 0 2.64 0 4 0 C4 3.63 4 7.26 4 11 C3.01 11.33 2.02 11.66 1 12 C0 11 0 11 -0.09765625 8.49609375 C-0.08605469 7.48675781 -0.07445312 6.47742188 -0.0625 5.4375 C-0.05347656 4.42558594 -0.04445312 3.41367188 -0.03515625 2.37109375 C-0.02355469 1.58863281 -0.01195312 0.80617187 0 0 Z " fill="#92999F" transform="translate(163,235)"/>
<path d="M0 0 C1 1 1 1 1.0625 4.5625 C1.041875 5.696875 1.02125 6.83125 1 8 C0.34 7.34 -0.32 6.68 -1 6 C-3.31765729 5.28072705 -5.65095874 4.6090107 -8 4 C-8 3.01 -8 2.02 -8 1 C-5.26752652 -0.36623674 -3.01801098 -0.128426 0 0 Z " fill="#909598" transform="translate(97,234)"/>
<path d="M0 0 C0.66 0 1.32 0 2 0 C4.38932765 3.58399147 5 5.73195001 5 10 C2.36 10 -0.28 10 -3 10 C-3 9.01 -3 8.02 -3 7 C-2.01 7 -1.02 7 0 7 C0 4.69 0 2.38 0 0 Z " fill="#8F9799" transform="translate(348,241)"/>
<path d="M0 0 C0.33 0 0.66 0 1 0 C1 2.64 1 5.28 1 8 C1.66 8.33 2.32 8.66 3 9 C2.01 10.485 2.01 10.485 1 12 C0.75849227 14.51584891 0.75849227 14.51584891 0.875 17.1875 C0.90207031 18.53908203 0.90207031 18.53908203 0.9296875 19.91796875 C0.95289063 20.60503906 0.97609375 21.29210937 1 22 C0.67 22 0.34 22 0 22 C0 19.36 0 16.72 0 14 C-2.64 14 -5.28 14 -8 14 C-8 13.67 -8 13.34 -8 13 C-5.69 13 -3.38 13 -1 13 C-1 12.01 -1 11.02 -1 10 C-3.31 9.67 -5.62 9.34 -8 9 C-8 8.67 -8 8.34 -8 8 C-5.36 8 -2.72 8 0 8 C0 5.36 0 2.72 0 0 Z " fill="#679B91" transform="translate(395,215)"/>
<path d="M0 0 C0.99 0.33 1.98 0.66 3 1 C2.34 1 1.68 1 1 1 C1.33 1.66 1.66 2.32 2 3 C2.66 2.67 3.32 2.34 4 2 C4 4.64 4 7.28 4 10 C2 9 2 9 1 8 C0.67 9.32 0.34 10.64 0 12 C-0.33 12 -0.66 12 -1 12 C-1.02698189 10.37509046 -1.04638757 8.75005367 -1.0625 7.125 C-1.07410156 6.22007812 -1.08570313 5.31515625 -1.09765625 4.3828125 C-1 2 -1 2 0 0 Z " fill="#89CCBF" transform="translate(382,213)"/>
<path d="M0 0 C3.37462715 0.54723683 5.08235 1.0549 8 3 C8 4.32 8 5.64 8 7 C4.65626525 6.44271087 1.96687001 5.64826111 -1 4 C-0.67 2.68 -0.34 1.36 0 0 Z " fill="#78BBAC" transform="translate(450,209)"/>
<path d="M0 0 C0.33 0.99 0.66 1.98 1 3 C-0.65 3 -2.3 3 -4 3 C-4 3.66 -4 4.32 -4 5 C-2.35 4.67 -0.7 4.34 1 4 C0.67 5.32 0.34 6.64 0 8 C-2.64 8 -5.28 8 -8 8 C-7.67 6.68 -7.34 5.36 -7 4 C-6.34 4 -5.68 4 -5 4 C-5 3.34 -5 2.68 -5 2 C-3.35 2 -1.7 2 0 2 C0 1.34 0 0.68 0 0 Z " fill="#858D8E" transform="translate(124,237)"/>
<path d="M0 0 C0.66 0 1.32 0 2 0 C2 1.32 2 2.64 2 4 C3.65 4.33 5.3 4.66 7 5 C6.25 7.4375 6.25 7.4375 5 10 C3.68 10.33 2.36 10.66 1 11 C0.67 7.37 0.34 3.74 0 0 Z " fill="#7CC2B3" transform="translate(366,194)"/>
<path d="M0 0 C0.91007812 0.00902344 1.82015625 0.01804688 2.7578125 0.02734375 C3.45648438 0.03894531 4.15515625 0.05054688 4.875 0.0625 C4.875 0.3925 4.875 0.7225 4.875 1.0625 C3.080625 1.1553125 3.080625 1.1553125 1.25 1.25 C-3.45832346 1.87721893 -5.98367738 3.38485401 -9.125 7.0625 C-9.88653755 10.07334715 -10.11149453 12.96299472 -10.125 16.0625 C-10.455 16.0625 -10.785 16.0625 -11.125 16.0625 C-11.75239631 7.0872473 -11.75239631 7.0872473 -9.25 3 C-6.02586705 0.06034937 -4.27022746 -0.05474651 0 0 Z " fill="#B3B4B4" transform="translate(330.125,189.9375)"/>
<path d="M0 0 C1.65 0 3.3 0 5 0 C5.33 4.62 5.66 9.24 6 14 C5.34 14 4.68 14 4 14 C4 11.36 4 8.72 4 6 C3.01 6 2.02 6 1 6 C0.67 4.02 0.34 2.04 0 0 Z " fill="#8B8F94" transform="translate(255,229)"/>
<path d="M0 0 C5.49579218 -0.54957922 9.46460996 1.03413634 14 4 C14.33 4.66 14.66 5.32 15 6 C11.15830842 6.21952523 8.45329726 5.72664863 5 4 C4.67 3.34 4.34 2.68 4 2 C2.68 2 1.36 2 0 2 C0 1.34 0 0.68 0 0 Z " fill="#72A79A" transform="translate(481,220)"/>
<path d="M0 0 C1.98 0 3.96 0 6 0 C6.33 2.31 6.66 4.62 7 7 C9.97 7.495 9.97 7.495 13 8 C13 8.66 13 9.32 13 10 C11 11.625 11 11.625 9 13 C9 12.01 9 11.02 9 10 C7.68 10.33 6.36 10.66 5 11 C5 7.7 5 4.4 5 1 C3.35 1 1.7 1 0 1 C0 0.67 0 0.34 0 0 Z " fill="#86898C" transform="translate(275,227)"/>
<path d="M0 0 C6.31067961 -0.48543689 6.31067961 -0.48543689 9.21875 1.5625 C11.65909392 4.90191799 11.40140053 7.16218578 11.25 11.25 C11.21390625 12.51328125 11.1778125 13.7765625 11.140625 15.078125 C11.07101562 16.52445313 11.07101562 16.52445313 11 18 C10.67 18 10.34 18 10 18 C10 13.71 10 9.42 10 5 C6.66189518 3.33094759 3.53842155 2.1258614 0 1 C0 0.67 0 0.34 0 0 Z " fill="#638A83" transform="translate(420,176)"/>
<path d="M0 0 C0.33 0 0.66 0 1 0 C1 2.64 1 5.28 1 8 C3.64 8 6.28 8 9 8 C8.67 8.66 8.34 9.32 8 10 C7.01 10 6.02 10 5 10 C5 10.66 5 11.32 5 12 C3.35 11.67 1.7 11.34 0 11 C-1.37432457 7.18243176 -0.67975039 3.92744671 0 0 Z " fill="#8ACDBF" transform="translate(400,202)"/>
<path d="M0 0 C0.33 0 0.66 0 1 0 C1.33 3.3 1.66 6.6 2 10 C-1.63 10 -5.26 10 -9 10 C-5 8 -5 8 -2.8125 7.25 C-0.64470576 6.05273288 -0.64470576 6.05273288 -0.25 2.875 C-0.1675 1.92625 -0.085 0.9775 0 0 Z " fill="#7C8183" transform="translate(222,235)"/>
<path d="M0 0 C0 2.97 0 5.94 0 9 C-1.32 9.33 -2.64 9.66 -4 10 C-4.29296875 3.9453125 -4.29296875 3.9453125 -4 2 C-1 0 -1 0 0 0 Z " fill="#7DBEB0" transform="translate(419,172)"/>
<path d="M0 0 C0 0.33 0 0.66 0 1 C-7.17757765 2.01202288 -13.81191259 1.88826175 -21 1 C-21 0.67 -21 0.34 -21 0 C-13.62596416 -2.60260089 -7.57170885 -1.50049108 0 0 Z " fill="#74A99F" transform="translate(447,270)"/>
<path d="M0 0 C2.61289776 3.00166801 3.36930244 4.79627311 3.29296875 8.765625 C3.28330078 9.65507812 3.27363281 10.54453125 3.26367188 11.4609375 C3.23853516 12.38132813 3.21339844 13.30171875 3.1875 14.25 C3.16719727 15.65378906 3.16719727 15.65378906 3.14648438 17.0859375 C3.11119954 19.39121327 3.06190281 21.6953106 3 24 C2.67 24 2.34 24 2 24 C1.93941406 22.85402344 1.87882812 21.70804688 1.81640625 20.52734375 C1.73193011 18.99738703 1.64728573 17.46743959 1.5625 15.9375 C1.52318359 15.18533203 1.48386719 14.43316406 1.44335938 13.65820312 C1.18419281 9.05301259 0.7200579 4.55633276 0 0 Z " fill="#6A968D" transform="translate(502,233)"/>
<path d="M0 0 C0.99 1.485 0.99 1.485 2 3 C2.66 3.33 3.32 3.66 4 4 C4.1875 7.375 4.1875 7.375 4 11 C3.01 11.66 2.02 12.32 1 13 C0.06934867 10.39417629 -0.14917407 9.35801776 0.9375 6.75 C1.4634375 5.88375 1.4634375 5.88375 2 5 C1.34 5 0.68 5 0 5 C0 3.35 0 1.7 0 0 Z " fill="#5F9086" transform="translate(423,229)"/>
<path d="M0 0 C1.67542976 0.28604898 3.34385343 0.61781233 5 1 C4.67 2.65 4.34 4.3 4 6 C2.68 6 1.36 6 0 6 C-0.38218767 4.34385343 -0.71395102 2.67542976 -1 1 C-0.67 0.67 -0.34 0.34 0 0 Z " fill="#84868B" transform="translate(135,229)"/>
<path d="M0 0 C0.99 0.33 1.98 0.66 3 1 C3 3.31 3 5.62 3 8 C3.66 8 4.32 8 5 8 C5.66 7.01 6.32 6.02 7 5 C7.33 6.65 7.66 8.3 8 10 C5.36 10 2.72 10 0 10 C0.29296875 7.98177083 0.5859375 5.96354167 0.87890625 3.9453125 C1.1684297 1.91859333 1.1684297 1.91859333 0 0 Z " fill="#828888" transform="translate(133,235)"/>
<path d="M0 0 C-0.66 1.65 -1.32 3.3 -2 5 C-4.97 4.505 -4.97 4.505 -8 4 C-8 3.01 -8 2.02 -8 1 C-5.07175348 0.02391783 -3.04386724 -0.08226668 0 0 Z " fill="#919595" transform="translate(221,234)"/>
<path d="M0 0 C0.66 0.33 1.32 0.66 2 1 C1.030625 1.53625 0.06125 2.0725 -0.9375 2.625 C-4.27535611 4.72005826 -4.27535611 4.72005826 -4.875 8.25 C-4.91625 9.1575 -4.9575 10.065 -5 11 C-5.99 11 -6.98 11 -8 11 C-7.68031467 7.48346139 -7.37757864 5.46568032 -5.125 2.6875 C-3 1 -3 1 0 0 Z " fill="#659388" transform="translate(478,219)"/>
<path d="M0 0 C0.33 0 0.66 0 1 0 C1.05395478 1.62463842 1.09277195 3.24978541 1.125 4.875 C1.14820313 5.77992188 1.17140625 6.68484375 1.1953125 7.6171875 C1 10 1 10 -1 12 C-3 9 -3 9 -3 6 C-2.34 6 -1.68 6 -1 6 C-1.0309375 4.7934375 -1.0309375 4.7934375 -1.0625 3.5625 C-1 1 -1 1 0 0 Z " fill="#8ACCBF" transform="translate(372,214)"/>
<path d="M0 0 C0.66 0 1.32 0 2 0 C2.0825 0.928125 2.165 1.85625 2.25 2.8125 C2.70257552 6.08509879 2.70257552 6.08509879 5.0625 7.875 C5.701875 8.24625 6.34125 8.6175 7 9 C6.01 9 5.02 9 4 9 C3.67 9.66 3.34 10.32 3 11 C0.29417212 7.16674383 -0.32613618 4.67461851 0 0 Z " fill="#638C82" transform="translate(436,192)"/>
<path d="M0 0 C0.33 0.66 0.66 1.32 1 2 C0.01 3.485 0.01 3.485 -1 5 C-1 3.68 -1 2.36 -1 1 C-1.33 1.99 -1.66 2.98 -2 4 C-3.98 4.33 -5.96 4.66 -8 5 C-8 3.68 -8 2.36 -8 1 C-5.29120665 -0.35439668 -2.99066732 -0.06501451 0 0 Z " fill="#7F8385" transform="translate(193,234)"/>
<path d="M0 0 C0.66 0 1.32 0 2 0 C2.042721 1.66611905 2.04063832 3.33382885 2 5 C1.67 5.33 1.34 5.66 1 6 C0.76712992 7.68183948 0.58735834 9.3712416 0.4375 11.0625 C0.35371094 11.98160156 0.26992188 12.90070313 0.18359375 13.84765625 C0.12300781 14.55792969 0.06242187 15.26820313 0 16 C-0.33 16 -0.66 16 -1 16 C-1.02685095 13.52076199 -1.04676547 11.0418116 -1.0625 8.5625 C-1.07506836 7.50192383 -1.07506836 7.50192383 -1.08789062 6.41992188 C-1.09653588 4.61306441 -1.05220011 2.80612397 -1 1 C-0.67 0.67 -0.34 0.34 0 0 Z " fill="#83B8AB" transform="translate(367,177)"/>
<path d="M0 0 C0.66 0 1.32 0 2 0 C2 0.99 2 1.98 2 3 C3.65 3.33 5.3 3.66 7 4 C6.67 4.66 6.34 5.32 6 6 C4.02 6 2.04 6 0 6 C0 4.02 0 2.04 0 0 Z " fill="#A6AAAE" transform="translate(198,238)"/>
<path d="M0 0 C0 0.66 0 1.32 0 2 C-1.65 2 -3.3 2 -5 2 C-5.66 3.65 -6.32 5.3 -7 7 C-7.66 7 -8.32 7 -9 7 C-9.1875 4.625 -9.1875 4.625 -9 2 C-5.5647952 -0.29013653 -4.014669 -0.17842973 0 0 Z " fill="#ABB2B4" transform="translate(124,237)"/>
<path d="M0 0 C0.66 0.33 1.32 0.66 2 1 C2 2.98 2 4.96 2 7 C2.66 7.33 3.32 7.66 4 8 C2.02 8 0.04 8 -2 8 C-1.125 1.125 -1.125 1.125 0 0 Z " fill="#BEC3C7" transform="translate(105,236)"/>
<path d="M0 0 C1.99954746 -0.04254356 4.00041636 -0.04080783 6 0 C7 1 7 1 7.0625 3.5625 C7.041875 4.366875 7.02125 5.17125 7 6 C4.525 5.01 4.525 5.01 2 4 C2 3.34 2 2.68 2 2 C1.34 1.34 0.68 0.68 0 0 Z " fill="#8E9395" transform="translate(144,234)"/>
<path d="M0 0 C0 2.31 0 4.62 0 7 C-0.66 7 -1.32 7 -2 7 C-2.33 7.66 -2.66 8.32 -3 9 C-3.79953138 5.71303767 -4.09658936 4.28976808 -3 1 C-1 0 -1 0 0 0 Z " fill="#B0B5BB" transform="translate(76,232)"/>
<path d="M0 0 C2.625 0.375 2.625 0.375 5 1 C5 1.66 5 2.32 5 3 C3 4.625 3 4.625 1 6 C0.67 5.34 0.34 4.68 0 4 C-0.66 4 -1.32 4 -2 4 C-2.33 4.99 -2.66 5.98 -3 7 C-2.25 2.25 -2.25 2.25 0 0 Z " fill="#818485" transform="translate(75,229)"/>
<path d="M0 0 C2.475 0.99 2.475 0.99 5 2 C5 5 5 5 4 7 C3.34 7 2.68 7 2 7 C1.67 7.66 1.34 8.32 1 9 C1.33 7.35 1.66 5.7 2 4 C0.68 3.34 -0.64 2.68 -2 2 C-1.34 2 -0.68 2 0 2 C0 1.34 0 0.68 0 0 Z " fill="#65988F" transform="translate(478,206)"/>
<path d="M0 0 C2.97 0 5.94 0 9 0 C9 0.99 9 1.98 9 3 C8.01 3 7.02 3 6 3 C5.67 3.99 5.34 4.98 5 6 C3.31237149 4.3545622 1.6459651 2.68711423 0 1 C0 0.67 0 0.34 0 0 Z " fill="#5F8F87" transform="translate(440,203)"/>
<path d="M0 0 C0.99 0.99 1.98 1.98 3 3 C1.92598892 5.91517292 1.22189824 7.77810176 -1 10 C-1.33 7.03 -1.66 4.06 -2 1 C-1.34 0.67 -0.68 0.34 0 0 Z " fill="#84CCBF" transform="translate(443,181)"/>
<path d="M0 0 C1.65 0.33 3.3 0.66 5 1 C5 1.66 5 2.32 5 3 C4.34 3 3.68 3 3 3 C2.67 4.65 2.34 6.3 2 8 C1.34 6.68 0.68 5.36 0 4 C-0.99 4 -1.98 4 -3 4 C-3 3.34 -3 2.68 -3 2 C-2.01 2 -1.02 2 0 2 C0 1.34 0 0.68 0 0 Z " fill="#808586" transform="translate(353,234)"/>
<path d="M0 0 C2.97 0 5.94 0 9 0 C8.01 0.33 7.02 0.66 6 1 C6 1.66 6 2.32 6 3 C5.34 3 4.68 3 4 3 C3.67 3.99 3.34 4.98 3 6 C0 2.25 0 2.25 0 0 Z " fill="#A4A8AA" transform="translate(344,235)"/>
<path d="M0 0 C-0.99 0 -1.98 0 -3 0 C-3 0.66 -3 1.32 -3 2 C-5.3125 3.6875 -5.3125 3.6875 -8 5 C-8.99 4.67 -9.98 4.34 -11 4 C-7.64918101 0.31409911 -4.96535219 -1.77334007 0 0 Z " fill="#649889" transform="translate(446,221)"/>
<path d="M0 0 C0.33 0 0.66 0 1 0 C1 1.65 1 3.3 1 5 C-1.64 5 -4.28 5 -7 5 C-7 3.68 -7 2.36 -7 1 C-6.34 1 -5.68 1 -5 1 C-5 1.66 -5 2.32 -5 3 C-3.35 3 -1.7 3 0 3 C0 2.01 0 1.02 0 0 Z " fill="#A4A8AA" transform="translate(192,240)"/>
<path d="M0 0 C0.33 0.66 0.66 1.32 1 2 C1.66 2.165 2.32 2.33 3 2.5 C3.66 2.665 4.32 2.83 5 3 C5.33 3.66 5.66 4.32 6 5 C5.34 5 4.68 5 4 5 C3.67 5.99 3.34 6.98 3 8 C2.01 8 1.02 8 0 8 C-1.43088528 5.13822943 -0.59991697 3.06624227 0 0 Z " fill="#7A8082" transform="translate(298,235)"/>
<path d="M0 0 C2.31 0.33 4.62 0.66 7 1 C6.67 2.32 6.34 3.64 6 5 C4.35 4.67 2.7 4.34 1 4 C0.67 2.68 0.34 1.36 0 0 Z " fill="#888D8D" transform="translate(236,234)"/>
<path d="M0 0 C-0.66 1.98 -1.32 3.96 -2 6 C-3.32 5.67 -4.64 5.34 -6 5 C-6.33 3.68 -6.66 2.36 -7 1 C-4.53721199 -0.231394 -2.7204945 -0.07159196 0 0 Z " fill="#7ABEB0" transform="translate(481,209)"/>
<path d="M0 0 C0.33 0 0.66 0 1 0 C1.08086147 1.79093191 1.13912702 3.58289628 1.1875 5.375 C1.22230469 6.37273437 1.25710938 7.37046875 1.29296875 8.3984375 C1.19628906 9.25695312 1.09960938 10.11546875 1 11 C0.01 11.66 -0.98 12.32 -2 13 C-2 10.69 -2 8.38 -2 6 C-1.67 6 -1.34 6 -1 6 C-0.67 4.02 -0.34 2.04 0 0 Z " fill="#6D9C92" transform="translate(491,190)"/>
<path d="M0 0 C0.33 0 0.66 0 1 0 C1.1953125 6.0546875 1.1953125 6.0546875 1 8 C-1 10 -1 10 -4.625 10.125 C-5.73875 10.08375 -6.8525 10.0425 -8 10 C-5.08235 8.0549 -3.37462715 7.54723683 0 7 C0 4.69 0 2.38 0 0 Z " fill="#6D9F95" transform="translate(504,261)"/>
<path d="M0 0 C2.31 0 4.62 0 7 0 C7 1.32 7 2.64 7 4 C5.02 4 3.04 4 1 4 C0.67 2.68 0.34 1.36 0 0 Z " fill="#7FB8AD" transform="translate(415,237)"/>
<path d="M0 0 C2.31 0.33 4.62 0.66 7 1 C7 3.31 7 5.62 7 8 C6.401875 7.236875 5.80375 6.47375 5.1875 5.6875 C3.53040668 3.6516425 1.89702326 1.8021721 0 0 Z " fill="#8C9194" transform="translate(301,234)"/>
<path d="M0 0 C1.98 0 3.96 0 6 0 C4.25 3.875 4.25 3.875 2 5 C2 4.34 2 3.68 2 3 C1.01 3 0.02 3 -1 3 C-0.67 2.01 -0.34 1.02 0 0 Z " fill="#A0ADAF" transform="translate(334,234)"/>
<path d="M0 0 C1.98 0 3.96 0 6 0 C6.33 1.65 6.66 3.3 7 5 C6.01 5 5.02 5 4 5 C4 4.01 4 3.02 4 2 C2.68 2 1.36 2 0 2 C0 1.34 0 0.68 0 0 Z " fill="#A7ADAE" transform="translate(266,234)"/>
<path d="M0 0 C1.65 0 3.3 0 5 0 C4.67 1.32 4.34 2.64 4 4 C1.69 4 -0.62 4 -3 4 C-2.34 3.67 -1.68 3.34 -1 3 C-0.67 2.01 -0.34 1.02 0 0 Z " fill="#84CBBE" transform="translate(390,224)"/>
<path d="M0 0 C0.99 0.33 1.98 0.66 3 1 C2.67 1.66 2.34 2.32 2 3 C-2.54093172 4.41904116 -7.2943099 4.09226843 -12 4 C-12 3.67 -12 3.34 -12 3 C-11.30132812 2.86722656 -10.60265625 2.73445312 -9.8828125 2.59765625 C-8.51769531 2.33275391 -8.51769531 2.33275391 -7.125 2.0625 C-6.22007812 1.88847656 -5.31515625 1.71445313 -4.3828125 1.53515625 C-2.00043683 1.10036299 -2.00043683 1.10036299 0 0 Z " fill="#56847A" transform="translate(473,211)"/>
<path d="M0 0 C1.32 0 2.64 0 4 0 C4 1.98 4 3.96 4 6 C1.525 5.01 1.525 5.01 -1 4 C-0.67 2.68 -0.34 1.36 0 0 Z " fill="#80B1A7" transform="translate(378,167)"/>
<path d="M0 0 C2 2 2 2 2.046875 3.91015625 C1.94890625 4.62042969 1.8509375 5.33070313 1.75 6.0625 C1.61851562 7.13177734 1.61851562 7.13177734 1.484375 8.22265625 C1.32453125 8.80917969 1.1646875 9.39570313 1 10 C0.01 10.495 0.01 10.495 -1 11 C-1.14285714 3.57142857 -1.14285714 3.57142857 0 0 Z " fill="#70A69A" transform="translate(467,241)"/>
<path d="M0 0 C0.99 0 1.98 0 3 0 C2.125 3.875 2.125 3.875 1 5 C-0.51928038 5.07179964 -2.04167482 5.08392007 -3.5625 5.0625 C-4.38878906 5.05347656 -5.21507813 5.04445312 -6.06640625 5.03515625 C-6.70449219 5.02355469 -7.34257813 5.01195312 -8 5 C-8.33 4.34 -8.66 3.68 -9 3 C-6.03 3.33 -3.06 3.66 0 4 C0 2.68 0 1.36 0 0 Z " fill="#737A7C" transform="translate(83,240)"/>
<path d="M0 0 C1.32 0 2.64 0 4 0 C4 1.32 4 2.64 4 4 C2.02 4 0.04 4 -2 4 C-1.34 2.68 -0.68 1.36 0 0 Z " fill="#D7D9D8" transform="translate(313,190)"/>
<path d="M0 0 C2.97 0.495 2.97 0.495 6 1 C5.67 2.32 5.34 3.64 5 5 C2.69 5 0.38 5 -2 5 C-1.01 4.34 -0.02 3.68 1 3 C0.67 2.01 0.34 1.02 0 0 Z " fill="#7D8283" transform="translate(237,240)"/>
<path d="M0 0 C1.32 0.66 2.64 1.32 4 2 C4 2.99 4 3.98 4 5 C2.35 4.67 0.7 4.34 -1 4 C-0.67 2.68 -0.34 1.36 0 0 Z " fill="#98A3A8" transform="translate(213,239)"/>
<path d="M0 0 C1.98 0.66 3.96 1.32 6 2 C5.01 2.495 5.01 2.495 4 3 C3.67 3.99 3.34 4.98 3 6 C2.67 5.34 2.34 4.68 2 4 C1.34 4 0.68 4 0 4 C0 2.68 0 1.36 0 0 Z " fill="#78B0A6" transform="translate(450,219)"/>
<path d="M0 0 C2.31 0 4.62 0 7 0 C6.67 1.32 6.34 2.64 6 4 C4.35 4 2.7 4 1 4 C1.33 3.01 1.66 2.02 2 1 C1.34 0.67 0.68 0.34 0 0 Z " fill="#84C8B8" transform="translate(460,215)"/>
<path d="M0 0 C2.97 0.495 2.97 0.495 6 1 C5.67 2.98 5.34 4.96 5 7 C4.34 7 3.68 7 3 7 C0 2.61538462 0 2.61538462 0 0 Z " fill="#84898A" transform="translate(264,235)"/>
<path d="M0 0 C1.65 0.33 3.3 0.66 5 1 C4.67 1.99 4.34 2.98 4 4 C2.35 3.67 0.7 3.34 -1 3 C-0.67 2.01 -0.34 1.02 0 0 Z " fill="#A3ABAD" transform="translate(162,229)"/>
<path d="M0 0 C1.98 0 3.96 0 6 0 C5.3125 1.9375 5.3125 1.9375 4 4 C1.375 4.75 1.375 4.75 -1 5 C-1 3 -1 3 0 2 C0 1.34 0 0.68 0 0 Z " fill="#76BCAF" transform="translate(374,211)"/>
<path d="M0 0 C0.33 0 0.66 0 1 0 C1.9765625 6.0546875 1.9765625 6.0546875 2 8 C1.34 8.66 0.68 9.32 0 10 C-0.66 9.67 -1.32 9.34 -2 9 C-2.125 5.625 -2.125 5.625 -2 2 C-1.34 1.34 -0.68 0.68 0 0 Z " fill="#848585" transform="translate(281,196)"/>
<path d="M0 0 C1.4606285 2.64738916 2 3.89448334 2 7 C-0.64 7 -3.28 7 -6 7 C-5.67 6.34 -5.34 5.68 -5 5 C-3.35 5.33 -1.7 5.66 0 6 C0 4.02 0 2.04 0 0 Z " fill="#797D80" transform="translate(250,238)"/>
<path d="M0 0 C0.66 0 1.32 0 2 0 C3.125 3.75 3.125 3.75 2 6 C1.34 6 0.68 6 0 6 C0 5.34 0 4.68 0 4 C-0.99 3.67 -1.98 3.34 -3 3 C-2.01 2.67 -1.02 2.34 0 2 C0 1.34 0 0.68 0 0 Z " fill="#C3C9CD" transform="translate(282,237)"/>
<path d="M0 0 C0.33 0 0.66 0 1 0 C1.36122881 1.31057393 1.71380311 2.62353624 2.0625 3.9375 C2.25972656 4.66839844 2.45695312 5.39929688 2.66015625 6.15234375 C2.77230469 6.76207031 2.88445312 7.37179688 3 8 C2 9 2 9 -1.0625 9.0625 C-2.031875 9.041875 -3.00125 9.02125 -4 9 C-2.68 8.34 -1.36 7.68 0 7 C0 4.69 0 2.38 0 0 Z " fill="#7C7F85" transform="translate(340,236)"/>
<path d="M0 0 C1.32 0 2.64 0 4 0 C3.67 2.31 3.34 4.62 3 7 C2.34 6.67 1.68 6.34 1 6 C0.375 2.9375 0.375 2.9375 0 0 Z " fill="#C0C6CA" transform="translate(170,235)"/>
<path d="M0 0 C2.475 0.495 2.475 0.495 5 1 C4.34 2.65 3.68 4.3 3 6 C2.01 5.67 1.02 5.34 0 5 C0 4.34 0 3.68 0 3 C0.66 2.67 1.32 2.34 2 2 C1.34 1.34 0.68 0.68 0 0 Z " fill="#89929C" transform="translate(108,234)"/>
<path d="M0 0 C-0.66 1.32 -1.32 2.64 -2 4 C-3.65 2.68 -5.3 1.36 -7 0 C-4.3333581 -1.33332095 -2.83319697 -0.67102033 0 0 Z " fill="#77AFA3" transform="translate(476,188)"/>
<path d="M0 0 C1.32 0 2.64 0 4 0 C3.67 1.65 3.34 3.3 3 5 C1.68 4.34 0.36 3.68 -1 3 C-0.67 2.01 -0.34 1.02 0 0 Z " fill="#888E91" transform="translate(323,236)"/>
<path d="M0 0 C6.75 0.75 6.75 0.75 9 3 C8.67 3.66 8.34 4.32 8 5 C7.34 5 6.68 5 6 5 C6 4.34 6 3.68 6 3 C5.01 3 4.02 3 3 3 C3 2.34 3 1.68 3 1 C2.01 0.67 1.02 0.34 0 0 Z " fill="#6D9C92" transform="translate(467,162)"/>
</svg>
